<svg id="Capa_1" enable-background="new 0 0 511.646 511.646" height="512" viewBox="0 0 511.646 511.646" width="512" xmlns="http://www.w3.org/2000/svg"><g id="XMLID_16_"><path id="XMLID_549_" d="m207.948 37.282h55.992v30h-55.992z" fill="#fdf4f5"/><path id="XMLID_3778_" d="m146.404 0c-42.922 0-76.544 22.965-76.544 52.282 0 29.316 33.623 52.281 76.544 52.281s76.544-22.965 76.544-52.281c0-29.317-33.622-52.282-76.544-52.282z" fill="#fc6680"/><path id="XMLID_456_" d="m256.403 13.607h85.57v107.732h-85.57z" fill="#f3b254"/><path id="XMLID_26_" d="m299.19 13.607h42.784v107.732h-42.784z" fill="#cc9529"/><path id="XMLID_3510_" d="m240.822 91.34h116.733v90.351h-116.733z" fill="#ffe666"/><path id="XMLID_35_" d="m299.19 91.34h58.365v90.351h-58.365z" fill="#f3b254"/><path id="XMLID_725_" d="m423.828 212.401c-23.499-40.285-67.068-65.311-113.706-65.311h-21.868c-46.637 0-90.207 25.025-113.706 65.31-17.003 29.148-22.154 63.303-14.504 96.17l47.268 203.076h183.753l47.268-203.076c7.65-32.867 2.499-67.02-14.505-96.169z" fill="#fc6680"/><path id="XMLID_36_" d="m423.828 212.401c-23.499-40.285-67.068-65.311-113.706-65.311h-10.932v364.556h91.875l47.268-203.076c7.65-32.867 2.499-67.02-14.505-96.169z" fill="#cb2e43"/><path id="XMLID_3478_" d="m366.82 270.946c0 36.06-8.83 162.64-22.92 240.7h-30.5c14.36-75.62 23.42-204.6 23.42-240.7 0-57.29-22.29-93.86-37.63-93.86-15.35 0-37.63 36.57-37.63 93.86 0 36.09 9.05 165.1 23.43 240.7h-30.51c-14.1-78.05-22.92-204.65-22.92-240.7 0-31.29 6-60.95 16.91-83.5 12.58-26.02 30.59-40.36 50.72-40.36 20.12 0 38.14 14.34 50.72 40.36 10.9 22.55 16.91 52.21 16.91 83.5z" fill="#cb2e43"/><path id="XMLID_37_" d="m349.91 187.446c-12.58-26.02-30.6-40.36-50.72-40.36v30c15.34 0 37.63 36.57 37.63 93.86 0 36.1-9.06 165.08-23.42 240.7h30.5c14.09-78.06 22.92-204.64 22.92-240.7 0-31.29-6.01-60.95-16.91-83.5z" fill="#a03"/></g></svg>